<?xml version="1.0" encoding="UTF-8"?>
<!DOCTYPE svg PUBLIC "-//W3C//DTD SVG 1.1//EN" "http://www.w3.org/Graphics/SVG/1.1/DTD/svg11.dtd">
<!-- Creator: CorelDRAW 2021.5 -->
<svg xmlns="http://www.w3.org/2000/svg" xml:space="preserve" width="2067px" height="2079px" version="1.1" style="shape-rendering:geometricPrecision; text-rendering:geometricPrecision; image-rendering:optimizeQuality; fill-rule:evenodd; clip-rule:evenodd"
viewBox="0 0 154.11 154.97"
 xmlns:xlink="http://www.w3.org/1999/xlink"
 xmlns:xodm="http://www.corel.com/coreldraw/odm/2003">
 <defs>
  <style type="text/css">
   <![CDATA[
    .fil0 {fill:#1998FF}
    .fil2 {fill:#256DD9;fill-rule:nonzero}
    .fil1 {fill:#ADE5FF;fill-rule:nonzero}
    .fil4 {fill:url(#id0)}
    .fil12 {fill:url(#id1)}
    .fil8 {fill:url(#id2)}
    .fil9 {fill:url(#id3)}
    .fil7 {fill:url(#id4)}
    .fil11 {fill:url(#id5)}
    .fil3 {fill:url(#id6)}
    .fil5 {fill:url(#id7)}
    .fil14 {fill:url(#id8)}
    .fil6 {fill:url(#id9)}
    .fil10 {fill:url(#id10)}
    .fil13 {fill:url(#id11)}
   ]]>
  </style>
  <linearGradient id="id0" gradientUnits="userSpaceOnUse" x1="47.8" y1="86.28" x2="41.8" y2="86.28">
   <stop offset="0" style="stop-opacity:1; stop-color:#1F346E"/>
   <stop offset="1" style="stop-opacity:1; stop-color:#256DD9"/>
  </linearGradient>
  <linearGradient id="id1" gradientUnits="userSpaceOnUse" xlink:href="#id0" x1="87.84" y1="46.14" x2="87.81" y2="50.71">
  </linearGradient>
  <linearGradient id="id2" gradientUnits="userSpaceOnUse" xlink:href="#id0" x1="58.95" y1="46.14" x2="58.91" y2="50.71">
  </linearGradient>
  <linearGradient id="id3" gradientUnits="userSpaceOnUse" xlink:href="#id0" x1="73.16" y1="46.14" x2="73.12" y2="50.71">
  </linearGradient>
  <linearGradient id="id4" gradientUnits="userSpaceOnUse" xlink:href="#id0" x1="88.43" y1="65.11" x2="82.43" y2="65.11">
  </linearGradient>
  <linearGradient id="id5" gradientUnits="userSpaceOnUse" xlink:href="#id0" x1="88.43" y1="95.8" x2="82.43" y2="95.79">
  </linearGradient>
  <linearGradient id="id6" gradientUnits="userSpaceOnUse" xlink:href="#id0" x1="74.23" y1="80.49" x2="68.22" y2="80.49">
  </linearGradient>
  <linearGradient id="id7" gradientUnits="userSpaceOnUse" xlink:href="#id0" x1="47.8" y1="61.09" x2="41.8" y2="61.08">
  </linearGradient>
  <linearGradient id="id8" gradientUnits="userSpaceOnUse" xlink:href="#id0" x1="113.14" y1="82.51" x2="108.2" y2="85.99">
  </linearGradient>
  <linearGradient id="id9" gradientUnits="userSpaceOnUse" xlink:href="#id0" x1="32.53" y1="46.14" x2="32.49" y2="50.71">
  </linearGradient>
  <linearGradient id="id10" gradientUnits="userSpaceOnUse" xlink:href="#id0" x1="24.74" y1="62.47" x2="24.73" y2="67.05">
  </linearGradient>
  <linearGradient id="id11" gradientUnits="userSpaceOnUse" xlink:href="#id0" x1="100.11" y1="64.39" x2="97.5" y2="62.27">
  </linearGradient>
 </defs>
 <g id="Layer_x0020_1">
  <metadata id="CorelCorpID_0Corel-Layer"/>
  <g id="_1947242388848">
   <path class="fil0" d="M16.82 109.58l120.54 0c7.64,0 13.9,6.25 13.9,13.89l0 0c0,7.64 -6.26,13.9 -13.9,13.9l-120.54 0c-7.64,0 -13.89,-6.26 -13.89,-13.9l0 0c0,-7.64 6.25,-13.89 13.89,-13.89zm69.23 35.12l41.47 0c2.82,0 5.13,2.31 5.13,5.14 0,2.82 -2.31,5.13 -5.13,5.13l-41.47 0c-2.82,0 -5.13,-2.31 -5.13,-5.13 0,-2.83 2.31,-5.14 5.13,-5.14zm-59.39 0l41.48 0c2.82,0 5.13,2.31 5.13,5.14 0,2.82 -2.31,5.13 -5.13,5.13l-41.48 0c-2.82,0 -5.13,-2.31 -5.13,-5.13 0,-2.83 2.31,-5.14 5.13,-5.14z"/>
   <path class="fil0" d="M31.67 38.07l0.2 0c3.69,-21.62 22.52,-38.07 45.19,-38.07 22.67,0 41.49,16.45 45.19,38.07l0.19 0c17.42,0 31.67,14.25 31.67,31.67 0,17.42 -14.25,31.67 -31.67,31.67l-90.77 0c-17.42,0 -31.67,-14.25 -31.67,-31.67 0,-17.42 14.25,-31.67 31.67,-31.67z"/>
   <g>
    <path class="fil1" d="M37.34 88.39l0 -41.74 1.09 -1.03 0 1.03 8.83 0 0 16.33 16.5 0 0 -16.33 1.09 -1.03 0 1.03 8.83 0 1.08 40.71 -1.08 1.03 -9.92 0 0 -17.23 -16.5 0 1.08 16.2 -1.08 1.03 -9.92 0zm40.63 -41.74l1.08 -1.03 0 1.03 7.73 0 0 10.25 -0.12 9.66 0.08 -0.12c0.82,-1.31 1.71,-2.65 2.68,-3.98 0.99,-1.34 2.08,-2.83 3.38,-4.42l9.3 -11.39 2.2 -1.03 10.79 1.03 -15.12 18.01 16.8 22.7 -1.08 1.03 -11.63 0 -10.83 -17.18 -5.34 6.12 1.08 10.03 -1.08 1.03 -9.92 0 0 -41.74z"/>
    <path class="fil2" d="M38.43 87.36l0 -41.74 9.91 0 0 16.34 16.51 0 0 -16.34 9.91 0 0 41.74 -9.91 0 0 -17.23 -16.51 0 0 17.23 -9.91 0zm66.71 0l-10.82 -17.17 -5.35 6.12 0 11.05 -9.92 0 0 -41.74 9.92 0 0 10.25 -0.11 9.67 0.07 -0.12c0.82,-1.32 1.71,-2.65 2.69,-3.98 0.98,-1.34 2.1,-2.81 3.38,-4.42l9.3 -11.4 11.88 0 -15.13 18.02 15.72 23.72 -11.63 0z"/>
    <polygon class="fil3" points="74.76,45.62 67.56,51.71 67.56,87.36 74.76,87.36 "/>
    <polygon class="fil4" points="41.14,76.22 41.14,87.36 48.34,87.36 48.34,70.13 "/>
    <polygon class="fil5" points="48.34,45.62 41.14,51.71 41.14,68.04 48.34,61.96 "/>
    <polygon class="fil6" points="48.34,45.62 39.83,52.83 38.43,52.83 38.43,45.62 "/>
    <polygon class="fil7" points="88.97,45.62 81.77,51.71 81.77,73.31 88.97,65.54 "/>
    <polygon class="fil8" points="74.76,45.62 66.25,52.83 64.85,52.83 64.85,45.62 "/>
    <polygon class="fil9" points="88.97,45.62 80.46,52.83 79.06,52.83 79.06,45.62 "/>
    <polygon class="fil10" points="64.85,61.96 56.34,69.16 39.73,69.16 48.34,61.96 "/>
    <polygon class="fil11" points="88.97,76.31 81.77,84.5 81.77,87.36 88.97,87.36 "/>
    <polygon class="fil12" points="116.18,45.62 104.14,52.83 98.42,52.83 104.3,45.62 "/>
    <polygon class="fil13" points="116.18,45.62 107.68,50.41 94.98,66.47 101.05,63.64 "/>
    <polygon class="fil14" points="101.05,63.64 94.98,66.47 108.37,87.36 116.77,87.36 "/>
   </g>
  </g>
 </g>
</svg>
