<?xml version="1.0" standalone="no"?>
<!DOCTYPE svg PUBLIC "-//W3C//DTD SVG 20010904//EN"
 "http://www.w3.org/TR/2001/REC-SVG-20010904/DTD/svg10.dtd">
<svg version="1.0" xmlns="http://www.w3.org/2000/svg"
 width="512.000000pt" height="512.000000pt" viewBox="0 0 512.000000 512.000000"
 preserveAspectRatio="xMidYMid meet">

<g transform="translate(0.000000,512.000000) scale(0.100000,-0.100000)"
fill="#000000" stroke="none">
<path d="M2147 4379 c-40 -23 -47 -68 -47 -284 l0 -205 -466 0 c-314 0 -472
-4 -486 -11 -41 -22 -48 -65 -48 -284 l0 -205 -216 0 c-135 0 -223 -4 -236
-11 -42 -23 -48 -63 -48 -332 0 -155 4 -266 11 -285 23 -67 -74 -62 1339 -62
1413 0 1316 -5 1339 62 7 19 11 130 11 285 0 269 -6 309 -48 332 -13 7 -101
11 -236 11 l-216 0 0 455 c0 485 -2 509 -48 534 -28 15 -580 14 -605 0z m453
-334 l0 -145 -150 0 -150 0 0 145 0 145 150 0 150 0 0 -145z m-1000 -500 l0
-145 -150 0 -150 0 0 145 0 145 150 0 150 0 0 -145z m500 0 l0 -145 -150 0
-150 0 0 145 0 145 150 0 150 0 0 -145z m500 0 l0 -145 -150 0 -150 0 0 145 0
145 150 0 150 0 0 -145z m-1500 -500 l0 -145 -150 0 -150 0 0 145 0 145 150 0
150 0 0 -145z m500 0 l0 -145 -150 0 -150 0 0 145 0 145 150 0 150 0 0 -145z
m500 0 l0 -145 -150 0 -150 0 0 145 0 145 150 0 150 0 0 -145z m500 0 l0 -145
-150 0 -150 0 0 145 0 145 150 0 150 0 0 -145z m500 0 l0 -145 -150 0 -150 0
0 145 0 145 150 0 150 0 0 -145z"/>
<path d="M3805 3476 c-35 -15 -117 -134 -163 -236 -56 -123 -76 -228 -75 -390
0 -116 4 -161 22 -224 11 -44 21 -80 21 -81 0 -16 -286 -20 -1706 -25 -1641
-5 -1662 -5 -1684 -25 -34 -31 -38 -43 -51 -173 -35 -352 88 -754 320 -1044
295 -370 721 -548 1313 -548 893 0 1639 338 2102 950 93 123 170 249 245 398
l60 119 88 6 c112 8 187 28 290 78 142 68 248 184 335 365 51 105 47 130 -27
187 -125 95 -259 136 -460 142 l-119 3 -28 67 c-38 95 -89 168 -182 261 -81
80 -199 165 -246 177 -14 3 -39 0 -55 -7z m149 -301 c105 -102 150 -183 187
-333 15 -65 53 -85 144 -76 165 17 299 4 396 -38 l49 -20 -28 -51 c-38 -69
-127 -159 -191 -191 -79 -41 -191 -66 -290 -66 -103 0 -148 -18 -173 -70 -10
-19 -45 -91 -79 -160 -115 -235 -258 -430 -453 -617 -347 -333 -805 -536
-1366 -605 -139 -17 -549 -17 -660 0 -472 73 -787 290 -982 676 -53 106 -100
237 -118 332 -18 98 -30 256 -24 306 l6 47 1587 3 1586 3 78 22 c107 31 193
71 212 99 22 34 19 89 -10 137 -77 132 -79 406 -4 576 25 56 47 91 58 91 4 0
38 -29 75 -65z"/>
</g>
</svg>
