<svg version="1.0" xmlns="http://www.w3.org/2000/svg" width="682.667" height="682.667" viewBox="0 0 512 512"><path d="M214.7 74.1c-4 2.3-4.7 6.8-4.7 28.4V123h-46.6c-31.4 0-47.2.4-48.6 1.1-4.1 2.2-4.8 6.5-4.8 28.4V173H88.4c-13.5 0-22.3.4-23.6 1.1-4.2 2.3-4.8 6.3-4.8 33.2 0 15.5.4 26.6 1.1 28.5 2.3 6.7-7.4 6.2 133.9 6.2s131.6.5 133.9-6.2c.7-1.9 1.1-13 1.1-28.5 0-26.9-.6-30.9-4.8-33.2-1.3-.7-10.1-1.1-23.6-1.1H280v-45.5c0-48.5-.2-50.9-4.8-53.4-2.8-1.5-58-1.4-60.5 0zm45.3 33.4V122h-30V93h30v14.5zm-100 50V172h-30v-29h30v14.5zm50 0V172h-30v-29h30v14.5zm50 0V172h-30v-29h30v14.5zm-150 50V222H80v-29h30v14.5zm50 0V222h-30v-29h30v14.5zm50 0V222h-30v-29h30v14.5zm50 0V222h-30v-29h30v14.5zm50 0V222h-30v-29h30v14.5z"/><path d="M380.5 164.4c-3.5 1.5-11.7 13.4-16.3 23.6-5.6 12.3-7.6 22.8-7.5 39 0 11.6.4 16.1 2.2 22.4 1.1 4.4 2.1 8 2.1 8.1 0 1.6-28.6 2-170.6 2.5-164.1.5-166.2.5-168.4 2.5-3.4 3.1-3.8 4.3-5.1 17.3-3.5 35.2 8.8 75.4 32 104.4 29.5 37 72.1 54.8 131.3 54.8 89.3 0 163.9-33.8 210.2-95 9.3-12.3 17-24.9 24.5-39.8l6-11.9 8.8-.6c11.2-.8 18.7-2.8 29-7.8 14.2-6.8 24.8-18.4 33.5-36.5 5.1-10.5 4.7-13-2.7-18.7-12.5-9.5-25.9-13.6-46-14.2l-11.9-.3-2.8-6.7c-3.8-9.5-8.9-16.8-18.2-26.1-8.1-8-19.9-16.5-24.6-17.7-1.4-.3-3.9 0-5.5.7zm14.9 30.1c10.5 10.2 15 18.3 18.7 33.3 1.5 6.5 5.3 8.5 14.4 7.6 16.5-1.7 29.9-.4 39.6 3.8l4.9 2-2.8 5.1c-3.8 6.9-12.7 15.9-19.1 19.1-7.9 4.1-19.1 6.6-29 6.6-10.3 0-14.8 1.8-17.3 7-1 1.9-4.5 9.1-7.9 16-11.5 23.5-25.8 43-45.3 61.7-34.7 33.3-80.5 53.6-136.6 60.5-13.9 1.7-54.9 1.7-66 0-47.2-7.3-78.7-29-98.2-67.6-5.3-10.6-10-23.7-11.8-33.2-1.8-9.8-3-25.6-2.4-30.6l.6-4.7 158.7-.3 158.6-.3 7.8-2.2c10.7-3.1 19.3-7.1 21.2-9.9 2.2-3.4 1.9-8.9-1-13.7-7.7-13.2-7.9-40.6-.4-57.6 2.5-5.6 4.7-9.1 5.8-9.1.4 0 3.8 2.9 7.5 6.5z"/></svg>