<svg width="45" height="55" xmlns="http://www.w3.org/2000/svg"><path d="M44.833 45.547l-6.54-15.873a19.05 19.05 0 003.195-10.585C41.488 8.563 32.97 0 22.5 0 12.03 0 3.512 8.563 3.512 19.09a19.05 19.05 0 003.194 10.584L.166 45.547c-.672 1.632.801 3.342 2.506 2.903l8.649-2.227 4.549 7.723c.9 1.53 3.143 1.356 3.814-.272l2.816-6.836 2.816 6.836c.671 1.628 2.914 1.801 3.814.272l4.55-7.723 8.648 2.227c1.703.438 3.179-1.269 2.505-2.903zM17.37 48.06l-3.188-5.412a2.133 2.133 0 00-2.37-.987l-6.06 1.561 4.086-9.92a18.908 18.908 0 008.942 4.508l1.407 3.414-2.817 6.836zm5.13-14.178c-8.113 0-14.713-6.636-14.713-14.792 0-8.156 6.6-14.792 14.713-14.792s14.713 6.636 14.713 14.792c0 8.156-6.6 14.792-14.713 14.792zm10.687 7.779a2.133 2.133 0 00-2.37.987l-3.187 5.412-4.083-9.91a18.86 18.86 0 0011.614-4.847l4.088 9.92-6.062-1.562z" fill="#00B3FF" fill-rule="nonzero"/></svg>