<svg width="55" height="55" xmlns="http://www.w3.org/2000/svg"><path d="M52.852 0H35.664A10.3 10.3 0 0027.5 4.02 10.3 10.3 0 0019.336 0H2.148A2.148 2.148 0 000 2.148v50.704C0 54.038.962 55 2.148 55h50.704A2.148 2.148 0 0055 52.852V2.148A2.148 2.148 0 0052.852 0zM12.46 4.297h4.726v6.21l-1.114-.797a2.145 2.145 0 00-2.498 0l-1.114.796v-6.21zM4.297 50.703v-3.867h15.039c2.56 0 4.75 1.608 5.617 3.867H4.297zm21.055-6.223a10.258 10.258 0 00-6.016-1.94H4.296V4.296h3.868V14.68c0 1.744 1.977 2.763 3.397 1.748l3.263-2.33 3.263 2.33c1.41 1.008 3.397.008 3.397-1.748V4.695a6.024 6.024 0 013.868 5.617V44.48zm25.351 6.223H30.047a6.025 6.025 0 015.617-3.867h15.04v3.867zm0-8.164H35.664c-2.243 0-4.321.72-6.016 1.94V10.314a6.022 6.022 0 016.016-6.016h15.04v38.242zM21.484 23.418a2.148 2.148 0 01-2.148 2.148h-9.023a2.148 2.148 0 110-4.296h9.023c1.187 0 2.148.961 2.148 2.148zm0 8.737a2.148 2.148 0 01-2.148 2.148h-9.023a2.148 2.148 0 110-4.297h9.023c1.187 0 2.148.962 2.148 2.149zm25.352-8.737a2.148 2.148 0 01-2.148 2.148h-9.024a2.148 2.148 0 110-4.296h9.023c1.187 0 2.149.961 2.149 2.148zM35.664 12.533h9.023a2.148 2.148 0 110 4.297h-9.023a2.148 2.148 0 110-4.297zm11.172 19.622a2.148 2.148 0 01-2.148 2.148h-9.024a2.148 2.148 0 110-4.297h9.023c1.187 0 2.149.962 2.149 2.149z" fill="#FF696D" fill-rule="nonzero"/></svg>