<svg width="62" height="72" xmlns="http://www.w3.org/2000/svg"><g fill-rule="nonzero" fill="none"><path d="M30.833 22c-.645 0-1.166-.493-1.166-1.1 0-6.953-1.13-16.103-4.311-19.01a1.055 1.055 0 01-.027-1.555A1.215 1.215 0 0126.978.31C31.638 4.566 32 17.146 32 20.9c0 .607-.522 1.1-1.167 1.1z" fill="#7E5C62"/><path d="M47.095 18.198c-4.07-.608-7.266.305-10.083 1.11-2.015.575-3.918 1.119-6.012 1.119-2.094 0-3.997-.544-6.012-1.12-2.818-.805-6.015-1.715-10.082-1.11C8.106 19.213 0 23.079 0 35.732c0 11.956 4.054 28.308 15.481 35.044 3.01 1.773 6.463 1.252 10.119.704 1.772-.267 3.604-.543 5.4-.543 1.796 0 3.628.276 5.4.543 1.754.264 3.463.521 5.097.521 1.771 0 3.457-.302 5.022-1.225C57.946 64.039 62 47.687 62 35.731c0-12.653-8.105-16.519-14.905-17.533z" fill="#FF4F19"/><path d="M31 20.426c-2.095 0-3.998-.544-6.013-1.12-2.818-.804-6.014-1.714-10.082-1.11C8.105 19.213 0 23.079 0 35.732 0 47.687 4.054 64.04 15.481 70.776c3.01 1.773 6.462 1.252 10.118.704 1.772-.267 3.605-.543 5.4-.543v-50.51H31z" fill="#E3001E"/><path d="M46.906 3.066a11.553 11.553 0 00-.003-2.969 11.553 11.553 0 00-2.969-.003c-6.776.868-12.972 7.065-13.84 13.84a11.552 11.552 0 00.003 2.969c.936.121 1.925.136 2.969.003 6.775-.868 12.972-7.065 13.84-13.84z" fill="#60DC4D"/><circle fill="#FF8C62" cx="48.5" cy="30.5" r="5.5"/><path d="M46 .084a10.971 10.971 0 00-2.739.003c-6.45.826-12.348 6.724-13.174 13.174A10.965 10.965 0 0030.084 16L46 .084z" fill="#00C37A"/></g></svg>