<svg width="72" height="72" xmlns="http://www.w3.org/2000/svg"><g fill-rule="nonzero" fill="none"><path d="M29.132 47.424L12.18 30.435a.612.612 0 010-.865l9.64-9.649a3.521 3.521 0 00.074-4.967l-.098-.098a1.56 1.56 0 00-1.392-.403 6.78 6.78 0 01-6.983-3.255 7.002 7.002 0 01.146-7.218 7.07 7.07 0 0110.988-1.493 6.787 6.787 0 011.856 5.946c-.09.484.05.981.378 1.346l.135.122a3.494 3.494 0 004.956-.073L41.52.179a.61.61 0 01.864 0l9.336 9.355a3.521 3.521 0 01-.074 4.968l-.134.134c-.36.347-.861.506-1.355.428a7.126 7.126 0 00-5.995 2.031 6.927 6.927 0 00-.747 9.26 6.893 6.893 0 009.123 1.653 7.234 7.234 0 003.443-7.096 1.688 1.688 0 01.44-1.407l.109-.11a3.503 3.503 0 014.957-.073l9.335 9.355a.613.613 0 010 .865L44.43 56l-15.298-8.576z" fill="#FF5364"/><path d="M70.392 54.745L47.557 68.748A8.48 8.48 0 0143.12 70H12.292L12 69.939c.19-.36.291-.76.292-1.166V43h3.412a11.11 11.11 0 016.946 2.455 11.11 11.11 0 006.946 2.454h6.373a6.07 6.07 0 015.227 2.982l.11.184a4.465 4.465 0 01-.67 5.425h2.863c.527 0 1.05-.087 1.548-.258l22.555-7.572a3.343 3.343 0 013.728 1.178v.012c.567.758.788 1.722.61 2.653a3.35 3.35 0 01-1.548 2.232z" fill="#FDD7AD"/><path d="M41 56a5.649 5.649 0 01-1.28 2.139c-.042.04-.086.078-.132.112-.186.143-.405.23-.635.25h-7.91a9.23 9.23 0 00-5.303 1.676l-.886.613c-.355.248-.81.279-1.192.08a1.248 1.248 0 01-.66-1.04 1.264 1.264 0 01.536-1.116l.873-.613A11.54 11.54 0 0131.042 56H41z" fill="#F09372"/><path d="M10.182 72H3.818C1.71 71.998.002 70.357 0 68.333V42.667C.002 40.643 1.71 39.002 3.818 39h6.364c2.108.002 3.816 1.643 3.818 3.667v25.666C14 70.358 12.29 72 10.182 72z" fill="#2980BA"/></g></svg>