<svg width="45" height="55" xmlns="http://www.w3.org/2000/svg"><path d="M10.04 27.483c0 1.186.928 2.147 2.074 2.147h20.772c1.146 0 2.074-.961 2.074-2.147 0-4.764-2.506-8.932-6.225-11.167a9.57 9.57 0 002.88-6.878C31.616 4.234 27.527 0 22.5 0s-9.116 4.234-9.116 9.438a9.57 9.57 0 002.881 6.878c-3.719 2.235-6.225 6.403-6.225 11.167zM22.5 4.294c2.74 0 4.968 2.308 4.968 5.144 0 2.836-2.228 5.144-4.968 5.144-2.74 0-4.968-2.308-4.968-5.144 0-2.836 2.229-5.144 4.968-5.144zm0 14.582c3.868 0 7.128 2.749 8.051 6.46H14.45c.923-3.71 4.183-6.46 8.051-6.46zm7.039 26.69c.81.838.81 2.198 0 3.036l-5.573 5.77-.005.004a2.023 2.023 0 01-2.922 0l-.005-.004-5.573-5.77a2.202 2.202 0 010-3.036 2.024 2.024 0 012.933 0l2.032 2.104V35.14c0-1.186.929-2.147 2.074-2.147 1.145 0 2.074.961 2.074 2.147v12.53l2.032-2.104a2.024 2.024 0 012.933 0zM45 38.347v8.16c0 1.159-.91 2.146-2.075 2.146H35.04c-1.145 0-2.075-.961-2.075-2.147s.93-2.147 2.075-2.147h2.876l-8.562-8.86a2.2 2.2 0 010-3.036 2.025 2.025 0 012.934 0l8.562 8.86v-2.976c0-1.185.93-2.147 2.075-2.147 1.146 0 2.075.961 2.075 2.147zm-32.965 8.16c0 1.185-.93 2.146-2.075 2.146H2.075C.95 48.653 0 47.706 0 46.506v-8.159C0 37.161.93 36.2 2.075 36.2c1.146 0 2.075.961 2.075 2.147v2.976l8.562-8.86a2.026 2.026 0 012.934 0 2.2 2.2 0 010 3.036l-8.562 8.86H9.96c1.145 0 2.075.961 2.075 2.147z" fill="#00D663" fill-rule="nonzero"/></svg>