<svg width="53" height="72" xmlns="http://www.w3.org/2000/svg"><g fill-rule="nonzero" fill="none"><path d="M29.75 65h-7.5c-.69 0-1.25.522-1.25 1.167v1.166C21 69.907 23.242 72 26 72s5-2.093 5-4.667v-1.166c0-.645-.56-1.167-1.25-1.167z" fill="#868491"/><path d="M26 65h-3c-.553 0-1 .522-1 1.167v1.166C22 69.907 23.794 72 26 72v-7z" fill="#5C546A"/><path d="M44.644 6.964C39.258 2.06 32.205-.397 24.807.052 11.325.865.434 11.765.013 24.866c-.31 9.708 4.95 18.645 13.731 23.327 2.183 1.164 3.539 3.4 3.539 5.838v8.502c0 2.464 2.067 4.467 4.609 4.467h9.217c2.542 0 4.609-2.003 4.609-4.467v-8.502c0-2.435 1.365-4.677 3.566-5.853C47.744 43.655 53 35.036 53 25.684c0-7.06-3.046-13.883-8.356-18.72z" fill="#FFCD00"/><circle fill="#FFE671" cx="26" cy="26" r="18"/><path d="M29.934 32c-1.495 0-2.26-.775-2.817-1.34-.49-.499-.686-.66-1.125-.66-.436 0-.63.161-1.12.658-.524.534-1.319 1.342-2.814 1.342-1.494 0-2.288-.808-2.813-1.342-.49-.497-.684-.658-1.12-.658-.622 0-1.125-.447-1.125-1 0-.553.503-1 1.125-1 1.494 0 2.288.808 2.814 1.342.489.497.683.658 1.12.658.435 0 .63-.161 1.12-.658.525-.534 1.32-1.342 2.813-1.342 1.496 0 2.26.775 2.817 1.34.491.499.687.66 1.125.66.437 0 .633-.161 1.124-.658.526-.534 1.32-1.342 2.817-1.342.622 0 1.125.447 1.125 1 0 .553-.503 1-1.125 1-.438 0-.634.161-1.125.66-.526.533-1.32 1.34-2.816 1.34z" fill="#FFF"/><path d="M22.856 54a1.14 1.14 0 01-1.116-.882L16.026 27.36c-.134-.605.258-1.201.874-1.334a1.141 1.141 0 011.36.857l5.714 25.759c.134.604-.258 1.2-.874 1.333a1.163 1.163 0 01-.244.025zM30.144 54c-.08 0-.161-.008-.244-.025a1.122 1.122 0 01-.874-1.333l5.714-25.76a1.14 1.14 0 011.36-.856c.616.132 1.008.728.874 1.333L31.26 53.12c-.117.523-.59.881-1.116.881z" fill="#5C546A"/><path d="M17 52c.124.518.2 1.052.2 1.599v8.786C17.2 64.93 19.285 67 21.85 67h9.3c2.563 0 4.649-2.07 4.649-4.615v-8.786c0-.547.076-1.08.201-1.599H17z" fill="#B4B6BC"/><path d="M26 52H16c.13.518.21 1.052.21 1.599v8.786c0 2.545 2.196 4.615 4.895 4.615H26V52zM26 55h10v3H26zM26 60h10v3H26z" fill="#868491"/><path fill="#5C546A" d="M17 55h10v3H17zM17 60h10v3H17z"/></g></svg>