<svg width="55" height="55" xmlns="http://www.w3.org/2000/svg"><path d="M52.852 0H2.148A2.148 2.148 0 000 2.148v37.238c0 1.186.962 2.149 2.148 2.149h8.976a7.582 7.582 0 001.6 2.879 10.17 10.17 0 00-4.497 8.438c0 1.186.962 2.148 2.149 2.148h34.248a2.148 2.148 0 002.149-2.148 10.17 10.17 0 00-4.496-8.438 7.582 7.582 0 001.6-2.88h8.975A2.149 2.149 0 0055 39.387V2.148A2.148 2.148 0 0052.852 0zM12.93 50.703a5.887 5.887 0 015.47-3.728 5.886 5.886 0 015.47 3.728H12.93zm2.178-11.317a3.296 3.296 0 013.292-3.292 3.296 3.296 0 013.292 3.292 3.296 3.296 0 01-3.292 3.292 3.295 3.295 0 01-3.292-3.292zm12.391 8.92a10.24 10.24 0 00-3.422-3.892 7.582 7.582 0 001.6-2.88h3.644a7.587 7.587 0 001.6 2.88 10.242 10.242 0 00-3.422 3.891zm3.63 2.397a5.886 5.886 0 015.469-3.728 5.887 5.887 0 015.47 3.728H31.13zm2.177-11.317a3.296 3.296 0 013.292-3.292 3.296 3.296 0 013.292 3.292 3.296 3.296 0 01-3.292 3.292 3.295 3.295 0 01-3.292-3.292zm17.396-2.148h-6.827c-.928-3.142-3.838-5.441-7.277-5.441-3.438 0-6.348 2.3-7.277 5.44h-3.644c-.929-3.14-3.839-5.44-7.277-5.44-3.439 0-6.349 2.3-7.277 5.44H4.297V4.298h46.406v32.94zm-28.975-7.816l13.466-6.733c1.58-.79 1.582-3.053 0-3.843l-13.466-6.733c-1.426-.713-3.11.324-3.11 1.922V27.5c0 1.605 1.695 2.63 3.11 1.922zm1.188-11.911l6.513 3.256-6.513 3.257V17.51z" fill="#791CFF" fill-rule="nonzero"/></svg>