<svg width="1440" height="481" xmlns="http://www.w3.org/2000/svg"><defs><linearGradient x1="100%" y1="50%" x2="0%" y2="50%" id="a"><stop stop-color="#A25CFF" offset="0%"/><stop stop-color="#A70FF6" offset="100%"/></linearGradient></defs><g fill="none" fill-rule="evenodd"><path fill="url(#a)" d="M1 0h1439v480H1z"/><path d="M1334 100h106v218h-106a5 5 0 01-5-5V105a5 5 0 015-5z" fill="#FFF" opacity=".112"/><g fill="#FFF" opacity=".112"><path d="M671 293h158a5 5 0 015 5v182H666V298a5 5 0 015-5z"/><path d="M623 319h158a5 5 0 015 5v157H618V324a5 5 0 015-5z"/></g><path d="M1286 126h153v218h-153a5 5 0 01-5-5V131a5 5 0 015-5zM1 50h108a5 5 0 015 5v208a5 5 0 01-5 5H1V50z" fill="#FFF" opacity=".112"/><path d="M0 76h61a5 5 0 015 5v208a5 5 0 01-5 5H0V76z" fill="#FFF" opacity=".112"/></g></svg>