<svg xmlns="http://www.w3.org/2000/svg" version="1.1" xmlns:xlink="http://www.w3.org/1999/xlink" width="245" height="245"><svg xmlns="http://www.w3.org/2000/svg" width="245" height="245" class="img-fluid" style="transform:matrix(1,0,0,1,0,0);transform-origin:50% 50%;cursor:move;max-height:none;transition:transform 200ms ease-in-out" viewBox="0 0 2450 2450">
  <path fill="#0074F8" d="M341 2274c-12-15-21-32-21-39s9-24 21-39l20-26h748l15 22c20 29 20 52 0 83l-16 25H361l-20-26zm955 4c-9-12-16-32-16-43s7-31 16-43l15-22h373c349 0 374 1 389 18 22 25 21 75-1 95-17 15-58 17-390 17h-371l-15-22zM125 2011c-66-41-95-92-95-167 0-89 58-174 148-220l57-29h1940l55 26c69 34 107 70 133 128 45 100 12 218-73 261-38 20-59 20-1087 20-1005 0-1049-1-1078-19zm346-567c-85-23-132-47-190-100a412 412 0 0 1-149-355c4-76 9-97 40-161a474 474 0 0 1 381-261c3 2 14-24 26-59a703 703 0 0 1 426-443c120-40 285-38 411 5a702 702 0 0 1 413 443l18 52 57 7a475 475 0 0 1 334 257c36 73 37 78 37 186s-1 113-38 187a461 461 0 0 1-315 247c-36 7-267 11-725 10-554 0-681-3-726-15z" style="transform:none"></path>
</svg><style>@media (prefers-color-scheme: light) { :root { filter: none; } }
@media (prefers-color-scheme: dark) { :root { filter: none; } }
</style></svg>